<svg xmlns="http://www.w3.org/2000/svg" width="202.32" height="38" viewBox="0 0 202.32 38"><defs><style>.a{fill:#e5b148;font-size:24px;font-family:MoristonPersonal-Black, Moriston Personal;font-weight:800;}.b{fill:#eaad31;}</style></defs><g transform="translate(-80 -58)"><text class="a" transform="translate(80 87)"><tspan x="0" y="0">OMNI-BUS</tspan></text><g transform="translate(240 59)"><path class="b" d="M239.436,384.86c-.182,0-.374-.017-.556-.022a9.791,9.791,0,0,1-16.574-7.06,9.9,9.9,0,0,1,.391-2.757c-.2-.352-.4-.721-.572-1.1a19,19,0,0,1-1.854-8.232c0-.413.011-.825.039-1.233a17.788,17.788,0,1,0,29.053,17.614,19.016,19.016,0,0,1-9.25,2.773C239.859,384.854,239.645,384.86,239.436,384.86Z" transform="translate(-214.311 -359.989)"/><path class="b" d="M261.371,363.188l-.058-.058a3.956,3.956,0,0,0-6.528,1.8,9.652,9.652,0,0,1-.628,1.542v.005c-.16.308-.336.611-.523.9a.461.461,0,0,1-.044.066,8.875,8.875,0,0,1-.611.825c-.11.138-.226.27-.352.4-.088.1-.182.2-.275.292-.066.066-.132.132-.2.2-.088.083-.171.16-.259.231a.627.627,0,0,1-.094.083c-.094.083-.193.165-.292.237a8.979,8.979,0,0,1-1.431.952c-.116.061-.231.121-.352.176a8.4,8.4,0,0,1-1.056.44c-.149.055-.3.1-.451.149s-.292.083-.44.116c-.072.022-.149.039-.22.055l-.077.017c-.138.033-.275.055-.418.077a.161.161,0,0,1-.05.011c-.094.017-.193.028-.292.044s-.22.027-.336.038c-.138.011-.27.022-.407.028q-.272.016-.545.016c-.209,0-.413-.005-.622-.022a.017.017,0,0,1-.022,0c-.209-.011-.418-.033-.627-.061-.149-.017-.292-.039-.44-.066-.11-.022-.22-.039-.336-.066-.171-.033-.341-.077-.512-.127q-.223-.058-.446-.132c-.077-.022-.154-.044-.226-.072q-.305-.107-.594-.231c-.171-.072-.341-.149-.506-.231s-.3-.154-.451-.242a2.418,2.418,0,0,1-.259-.149c-.116-.066-.226-.132-.336-.209s-.22-.143-.325-.226-.215-.154-.319-.237a8.413,8.413,0,0,1-.886-.781c-.094-.094-.182-.187-.275-.281l-.017-.017c-.171-.187-.336-.385-.5-.583-.005-.005-.011-.005-.011-.011a10.456,10.456,0,0,1-.66-.952.019.019,0,0,1-.005-.011c-.072-.11-.138-.226-.2-.341a9.087,9.087,0,0,1-.479-.99c-.039-.088-.072-.176-.1-.27l0,0a.842.842,0,0,1,.709-1.125c.118-.013.236-.023.354-.031.248-.022.5-.033.754-.033a9.793,9.793,0,0,1,9.008,5.954c.033-.006.072-.017.1-.022.072-.011.143-.033.215-.05.193-.049.391-.1.583-.165.1-.033.209-.072.319-.11.154-.061.308-.121.462-.187.1-.044.209-.088.308-.138.226-.1.44-.226.655-.352.1-.061.2-.132.3-.2.127-.083.253-.171.374-.259.1-.077.2-.154.3-.231.127-.1.248-.215.374-.325l.231-.215c.1-.1.2-.22.3-.33s.209-.22.3-.336c.16-.2.314-.407.457-.622.022-.033.05-.061.072-.094.165-.259.319-.528.462-.8l.094-.182a6.976,6.976,0,0,0,.3-.726,17.775,17.775,0,0,0-14.191-8.573q-.512-.033-1.04-.033c-.209,0-.424.006-.633.011a17.677,17.677,0,0,0-9.657,3.268,17.685,17.685,0,0,0,3.45,13.168v.005c.121.16.242.319.369.473s.259.308.391.462c.264.308.545.605.836.9.121.121.242.237.369.358s.248.226.374.341l.38.33c.162.141.334.273.5.408.337.269.682.529,1.044.764.136.087.27.176.412.264.435.275.875.528,1.326.759.143.077.286.149.435.22s.292.138.44.2.292.132.44.193c.3.121.6.237.9.347.231.083.468.16.7.237a1.521,1.521,0,0,1,.149.044c.44.132.886.248,1.343.341.286.066.567.116.853.165.215.033.429.066.644.094.253.033.5.055.754.077s.506.039.754.05.5.017.754.017h.017c.2,0,.407-.006.611-.011a.152.152,0,0,0,.049-.005.735.735,0,0,0,.11-.006,1.135,1.135,0,0,0,.237-.011q.231-.008.462-.033c.132-.005.27-.022.4-.039a2.994,2.994,0,0,0,.3-.033c.143-.017.286-.033.429-.055.215-.033.435-.066.649-.11.121-.022.237-.044.352-.072.165-.027.33-.066.49-.1.083-.017.165-.039.248-.061.209-.05.418-.1.622-.171a14.825,14.825,0,0,0,1.513-.512c.149-.061.3-.121.451-.187a.732.732,0,0,0,.1-.039l.512-.231c.413-.193.825-.407,1.227-.638.154-.088.3-.176.451-.264.358-.215.71-.446,1.056-.7a17.516,17.516,0,0,0,2.289-1.931c.149-.149.292-.3.44-.451a17.719,17.719,0,0,0,4.011-6.979,3.9,3.9,0,0,0-.935-3.843Z" transform="translate(-220.306 -356.332)"/></g></g></svg>