<svg xmlns="http://www.w3.org/2000/svg" width="888.21" height="746.738" viewBox="0 0 888.21 746.738"><defs><style>.a{fill:#f3f6f8;}</style></defs><path class="a" d="M741.624,792.572c-3.811,0-7.853-.346-11.664-.462a204.89,204.89,0,0,1-142.28,57.28c-113.524,0-205.567-92.043-205.567-205.451a207.855,207.855,0,0,1,8.2-57.859C386.04,578.69,382,570.953,378.3,563.1a398.82,398.82,0,0,1-38.919-172.769c0-8.662.231-17.323.808-25.869A372.127,372.127,0,0,0,214.311,643.94c0,206.144,167.11,373.369,373.369,373.369,174.962,0,321.978-120.568,362.282-283.175a399.1,399.1,0,0,1-194.133,58.206C750.517,792.456,746.013,792.572,741.624,792.572Z" transform="translate(-214.311 -270.571)"/><path class="a" d="M935.576,500.228l-1.224-1.212c-44.474-43.954-118.49-22.024-137,37.684a202.615,202.615,0,0,1-13.177,32.36v.115c-3.349,6.467-7.045,12.819-10.971,18.94a9.7,9.7,0,0,1-.924,1.385,186.276,186.276,0,0,1-12.819,17.323c-2.31,2.888-4.735,5.66-7.391,8.431-1.848,2.078-3.811,4.156-5.775,6.12-1.385,1.386-2.771,2.772-4.272,4.158-1.848,1.732-3.581,3.349-5.428,4.849a13.122,13.122,0,0,1-1.964,1.733c-1.963,1.733-4.042,3.465-6.121,4.967a188.473,188.473,0,0,1-30.027,19.979c-2.425,1.269-4.85,2.54-7.391,3.695a176.285,176.285,0,0,1-22.174,9.239c-3.118,1.154-6.236,2.193-9.47,3.117-3,.925-6.12,1.733-9.239,2.425-1.5.462-3.118.808-4.62,1.155-.577.116-1.039.231-1.617.346-2.887.693-5.774,1.154-8.777,1.617a3.383,3.383,0,0,1-1.039.23c-1.963.346-4.043.578-6.121.924-2.31.23-4.619.578-7.045.808-2.887.232-5.659.462-8.546.578q-5.716.346-11.433.346c-4.389,0-8.662-.115-13.051-.462a.35.35,0,0,1-.462,0c-4.389-.23-8.777-.693-13.165-1.27-3.118-.346-6.121-.809-9.239-1.385-2.309-.462-4.62-.809-7.044-1.386-3.581-.694-7.16-1.617-10.741-2.657q-4.677-1.212-9.354-2.771c-1.617-.462-3.233-.925-4.734-1.5q-6.409-2.252-12.473-4.851c-3.581-1.5-7.16-3.117-10.625-4.85-3.233-1.617-6.352-3.233-9.47-5.082a50.792,50.792,0,0,1-5.428-3.118c-2.425-1.385-4.734-2.771-7.045-4.388-2.31-1.5-4.62-3-6.814-4.735-2.309-1.617-4.5-3.233-6.7-4.965a176.678,176.678,0,0,1-18.594-16.4c-1.963-1.963-3.811-3.927-5.774-5.89l-.346-.346c-3.581-3.926-7.045-8.084-10.394-12.241-.115-.116-.231-.116-.231-.231a219.41,219.41,0,0,1-13.858-19.979.4.4,0,0,1-.115-.231c-1.5-2.309-2.887-4.734-4.158-7.16a190.647,190.647,0,0,1-10.048-20.787c-.808-1.848-1.5-3.7-2.194-5.659l-.035-.092c-4.077-10.775,3.43-22.382,14.886-23.617,2.472-.266,4.943-.484,7.437-.658,5.2-.462,10.51-.693,15.822-.693,84.767,0,157.639,51.391,189.052,124.957.693-.116,1.5-.347,2.194-.462,1.5-.23,3-.693,4.5-1.039,4.042-1.039,8.2-2.194,12.241-3.464,2.194-.694,4.388-1.5,6.7-2.311,3.233-1.27,6.467-2.541,9.7-3.927,2.194-.923,4.388-1.848,6.468-2.886,4.734-2.194,9.239-4.736,13.743-7.391,2.079-1.27,4.273-2.772,6.352-4.157,2.656-1.733,5.312-3.581,7.853-5.428,2.195-1.617,4.273-3.233,6.352-4.85,2.656-2.194,5.2-4.5,7.853-6.815l4.85-4.5c2.195-2.194,4.274-4.62,6.352-6.93,2.2-2.309,4.389-4.62,6.352-7.045,3.35-4.156,6.582-8.546,9.586-13.049.462-.693,1.039-1.27,1.5-1.963,3.465-5.428,6.7-11.087,9.7-16.861l1.964-3.811a146.518,146.518,0,0,0,6.352-15.244C704.949,434.632,595.351,364.3,468.893,357.026q-10.74-.694-21.827-.694c-4.388,0-8.892.116-13.281.231a371,371,0,0,0-202.68,68.6,371.162,371.162,0,0,0,72.41,276.36v.115c2.541,3.349,5.082,6.7,7.738,9.933s5.428,6.467,8.2,9.7c5.543,6.467,11.433,12.7,17.553,18.823,2.541,2.541,5.081,4.967,7.738,7.507,2.541,2.426,5.2,4.736,7.853,7.16l7.969,6.93c3.407,2.967,7.01,5.74,10.555,8.569,7.079,5.647,14.321,11.109,21.919,16.041,2.852,1.836,5.659,3.683,8.638,5.531,9.123,5.775,18.362,11.087,27.832,15.937,3,1.617,6.006,3.118,9.123,4.62,3,1.5,6.121,2.887,9.239,4.272,3,1.387,6.121,2.773,9.239,4.042,6.237,2.541,12.588,4.966,18.94,7.276,4.851,1.732,9.816,3.349,14.783,4.965a31.959,31.959,0,0,1,3.119.925c9.238,2.772,18.593,5.2,28.178,7.16,6.005,1.385,11.9,2.425,17.9,3.464,4.5.694,9.008,1.386,13.512,1.964,5.312.693,10.509,1.155,15.822,1.617s10.625.809,15.822,1.04c5.312.23,10.51.346,15.822.346h.346c4.273,0,8.546-.116,12.819-.231a3.2,3.2,0,0,0,1.039-.115,15.432,15.432,0,0,0,2.311-.116,23.817,23.817,0,0,0,4.966-.231q4.85-.173,9.7-.693c2.771-.115,5.659-.462,8.43-.808a62.682,62.682,0,0,0,6.352-.694c3-.346,6.005-.693,9.008-1.154,4.5-.694,9.123-1.385,13.627-2.31,2.541-.462,4.966-.923,7.391-1.5,3.465-.577,6.929-1.385,10.279-2.194,1.732-.346,3.465-.808,5.2-1.27,4.388-1.04,8.776-2.2,13.05-3.581a311.292,311.292,0,0,0,31.759-10.74c3.118-1.271,6.352-2.541,9.47-3.927a15.249,15.249,0,0,0,2.078-.809l10.741-4.85c8.661-4.042,17.323-8.547,25.753-13.4,3.233-1.848,6.351-3.7,9.47-5.544,7.507-4.5,14.9-9.354,22.174-14.667a367.571,367.571,0,0,0,48.042-40.536c3.119-3.117,6.122-6.236,9.239-9.47a371.881,371.881,0,0,0,84.178-146.471A81.882,81.882,0,0,0,938.8,503.5C937.735,502.4,936.662,501.314,935.576,500.228Z" transform="translate(-73.697 -356.332)"/></svg>