<svg xmlns="http://www.w3.org/2000/svg" width="64" height="53.806" viewBox="0 0 64 53.806"><defs><style>.a{fill:#fff;}</style></defs><path class="a" d="M252.307,395.309c-.275,0-.566-.025-.84-.033A14.808,14.808,0,0,1,226.4,384.6a14.977,14.977,0,0,1,.591-4.169c-.308-.533-.6-1.09-.865-1.656a28.736,28.736,0,0,1-2.8-12.449c0-.624.017-1.248.058-1.864A26.9,26.9,0,1,0,267.318,391.1a28.757,28.757,0,0,1-13.988,4.194C252.947,395.3,252.623,395.309,252.307,395.309Z" transform="translate(-214.311 -357.697)"/><path class="a" d="M278.651,366.7l-.088-.087a5.982,5.982,0,0,0-9.872,2.715,14.6,14.6,0,0,1-.949,2.332v.008c-.241.466-.508.924-.791,1.365a.7.7,0,0,1-.067.1,13.435,13.435,0,0,1-.924,1.248c-.167.208-.341.408-.533.607-.133.15-.275.3-.416.441-.1.1-.2.2-.308.3-.133.125-.258.241-.391.349a.947.947,0,0,1-.142.125c-.141.125-.291.25-.441.358a13.579,13.579,0,0,1-2.164,1.44c-.175.091-.349.183-.533.266a12.69,12.69,0,0,1-1.6.666c-.225.083-.449.158-.682.225-.216.067-.441.125-.666.175-.108.033-.225.058-.333.083l-.117.025c-.208.05-.416.083-.632.117a.243.243,0,0,1-.075.017c-.141.025-.291.042-.441.067-.166.017-.333.042-.508.058-.208.017-.408.033-.616.042q-.412.025-.824.025c-.316,0-.624-.008-.94-.033a.025.025,0,0,1-.033,0c-.316-.017-.632-.05-.949-.092-.225-.025-.441-.058-.666-.1-.166-.033-.333-.058-.508-.1-.258-.05-.516-.116-.774-.191q-.337-.087-.674-.2c-.116-.033-.233-.067-.341-.108q-.462-.162-.9-.35c-.258-.108-.516-.225-.766-.349-.233-.117-.458-.233-.682-.366a3.669,3.669,0,0,1-.391-.225c-.175-.1-.341-.2-.508-.316s-.333-.216-.491-.341-.325-.233-.483-.358a12.725,12.725,0,0,1-1.34-1.182c-.141-.141-.275-.283-.416-.424l-.025-.025c-.258-.283-.508-.583-.749-.882-.008-.008-.017-.008-.017-.017a15.822,15.822,0,0,1-1-1.44.029.029,0,0,1-.008-.017c-.108-.166-.208-.341-.3-.516a13.746,13.746,0,0,1-.724-1.5c-.058-.133-.108-.266-.158-.408l0-.007a1.273,1.273,0,0,1,1.073-1.7c.178-.019.356-.035.536-.047.374-.033.757-.05,1.14-.05a14.81,14.81,0,0,1,13.622,9c.05-.008.108-.025.158-.033.108-.017.216-.05.325-.075.291-.075.591-.158.882-.25.158-.05.316-.108.483-.166.233-.092.466-.183.7-.283.158-.067.316-.133.466-.208.341-.158.666-.341.99-.533.15-.091.308-.2.458-.3.191-.125.383-.258.566-.391.158-.117.308-.233.458-.349.191-.158.374-.325.566-.491l.349-.324c.158-.158.308-.333.458-.5s.316-.333.458-.508c.241-.3.474-.616.691-.94.033-.05.075-.092.108-.141.25-.391.483-.8.7-1.215l.141-.275a10.549,10.549,0,0,0,.458-1.1,26.881,26.881,0,0,0-21.461-12.965q-.774-.05-1.573-.05c-.316,0-.641.008-.957.017a26.732,26.732,0,0,0-14.6,4.943,26.745,26.745,0,0,0,5.218,19.913v.008c.183.241.366.483.558.716s.391.466.591.7c.4.466.824.915,1.265,1.356.183.183.366.358.558.541s.374.341.566.516l.574.5c.245.214.505.414.761.617.51.407,1.032.8,1.579,1.156.206.132.408.265.622.4.657.416,1.323.8,2.005,1.148.216.117.433.225.657.333s.441.208.666.308.441.2.666.291c.449.183.907.358,1.365.524.349.125.707.241,1.065.358a2.3,2.3,0,0,1,.225.067c.666.2,1.34.374,2.03.516.433.1.857.175,1.29.25.325.05.649.1.974.142.383.05.757.083,1.14.116s.766.058,1.14.075.757.025,1.14.025h.025c.308,0,.616-.008.924-.017a.229.229,0,0,0,.075-.008,1.119,1.119,0,0,0,.166-.008,1.72,1.72,0,0,0,.358-.017q.349-.013.7-.05c.2-.008.408-.033.607-.058a4.531,4.531,0,0,0,.458-.05c.216-.025.433-.05.649-.083.325-.05.657-.1.982-.166.183-.033.358-.067.533-.108.25-.042.5-.1.741-.158.125-.025.25-.058.375-.092.316-.075.632-.158.94-.258a22.411,22.411,0,0,0,2.288-.774c.225-.092.458-.183.682-.283a1.111,1.111,0,0,0,.15-.058l.774-.349c.624-.291,1.248-.616,1.856-.965.233-.133.458-.266.682-.4.541-.325,1.073-.674,1.6-1.057a26.49,26.49,0,0,0,3.462-2.921c.225-.225.441-.449.666-.682a26.8,26.8,0,0,0,6.065-10.554,5.9,5.9,0,0,0-1.415-5.812C278.807,366.857,278.73,366.779,278.651,366.7Z" transform="translate(-216.549 -356.332)"/></svg>