<svg xmlns="http://www.w3.org/2000/svg" width="34.421" height="46.36" viewBox="0 0 34.421 46.36"><defs><style>.a,.b{fill:none;stroke:#eaad31;stroke-linecap:round;stroke-width:2px;}.b{stroke-linejoin:round;}</style></defs><g transform="translate(-4 -2)"><path class="a" d="M10,13.154v18.17" transform="translate(6.579 13.36)"/><path class="a" d="M28.158,11.016v6.413a4.632,4.632,0,0,1-4.632,4.632H9.632A4.632,4.632,0,0,1,5,17.429V11.016A4.632,4.632,0,0,1,9.632,6.385H23.526A4.632,4.632,0,0,1,28.158,11.016Z" transform="translate(0 4.453)"/><path class="a" d="M13.333,10.838V3" transform="translate(10.965)"/><path class="a" d="M6.667,10.838V3" transform="translate(2.193)"/><path class="b" d="M18.86,16,15,22.947h9.263L20.4,29.895" transform="translate(13.158 17.105)"/></g></svg>