<svg xmlns="http://www.w3.org/2000/svg" width="38.48" height="41.724" viewBox="0 0 38.48 41.724"><defs><style>.a{fill:none;stroke:#eaad31;stroke-linecap:round;stroke-linejoin:round;stroke-width:2px;}</style></defs><path class="a" d="M3,11.931,9.952,15.9m28.8,15.89L31.8,27.821M20.876,21.862,9.952,15.9m10.924,5.959L9.952,27.821m10.924-5.959V7.959m0,13.9v12.91m0-12.91L31.8,27.821M20.876,21.862,31.8,15.9M20.876,2V7.959m0,33.765V34.772M38.752,11.931,31.8,15.9M3,31.793l6.952-3.972m0-11.917L3,17.89M9.952,15.9,8.959,8.952m.993,18.869L3,25.834m6.952,1.986-.993,6.952M20.876,7.959,15.91,5.972m4.966,1.986,4.965-1.986m-4.965,28.8,4.965,2.979m-4.965-2.979L15.91,37.752M31.8,27.821l.993,6.952M31.8,27.821l6.952-1.986M31.8,15.9l6.952,1.986M31.8,15.9l.993-6.952" transform="translate(-1.636 -1)"/></svg>